<svg xmlns="http://www.w3.org/2000/svg" xmlns:xlink="http://www.w3.org/1999/xlink" width="500" zoomAndPan="magnify" viewBox="0 0 375 374.999991" height="500" preserveAspectRatio="xMidYMid meet" version="1.0"><defs><g/></defs><rect x="-37.5" width="450" fill="#ffffff" y="-37.499999" height="449.999989" fill-opacity="1"/><rect x="-37.5" width="450" fill="#000000" y="-37.499999" height="449.999989" fill-opacity="1"/><g fill="#ffffff" fill-opacity="1"><g transform="translate(69.944831, 235.124985)"><g><path d="M 23.371094 -16.914062 L 27.214844 -28.597656 L 64.574219 -28.597656 L 68.417969 -17.375 C 69.957031 -12.300781 70.265625 -6.148438 69.035156 -2 L 68.417969 0.308594 L 118.386719 0.308594 L 115.925781 -2 C 111.621094 -6.148438 107.625 -12.300781 105.933594 -17.375 L 81.488281 -90.25 C 79.796875 -95.324219 79.179688 -101.628906 80.105469 -105.933594 L 80.71875 -109.164062 C 70.417969 -107.777344 43.664062 -105.164062 32.59375 -115.3125 C 31.058594 -114.082031 29.980469 -110.546875 31.671875 -105.933594 C 33.054688 -102.398438 34.902344 -99.324219 37.207031 -96.863281 L 10.453125 -16.914062 C 8.765625 -12.144531 5.535156 -6.304688 2.304688 -2.460938 L 0 0.308594 L 25.214844 0.308594 L 24.445312 -1.382812 C 22.140625 -5.996094 21.679688 -12.144531 23.371094 -16.914062 Z M 46.125 -85.175781 L 61.652344 -37.824219 L 30.289062 -37.824219 Z M 46.125 -85.175781 "/></g></g></g><g fill="#ffffff" fill-opacity="1"><g transform="translate(188.332282, 235.124985)"><g><path d="M 110.855469 0 C 107.933594 -11.070312 109.164062 -33.824219 112.082031 -45.511719 C 112.546875 -47.96875 112.390625 -49.046875 111.160156 -49.046875 C 110.546875 -49.046875 109.777344 -48.738281 108.703125 -48.277344 C 102.550781 -45.511719 95.171875 -43.511719 88.097656 -43.511719 C 80.871094 -43.511719 73.800781 -45.511719 68.574219 -50.582031 C 61.191406 -44.125 63.960938 -29.210938 77.027344 -25.984375 C 77.335938 -15.835938 73.644531 -7.996094 65.191406 -7.535156 C 55.964844 -6.917969 44.125 -20.296875 42.28125 -53.503906 C 40.898438 -80.71875 50.429688 -100.089844 59.960938 -101.015625 C 74.261719 -102.398438 66.882812 -90.25 68.878906 -78.566406 C 70.417969 -70.109375 78.105469 -66.574219 86.40625 -66.574219 C 95.480469 -66.574219 105.472656 -70.726562 108.855469 -77.335938 C 100.089844 -85.175781 102.398438 -97.171875 104.394531 -108.855469 L 101.167969 -107.011719 C 97.171875 -104.703125 93.480469 -103.933594 90.097656 -103.933594 C 80.410156 -103.933594 72.261719 -110.546875 59.5 -110.546875 C 24.90625 -110.546875 4.304688 -89.484375 4.304688 -54.273438 C 4.457031 -19.066406 25.214844 2 60.421875 2.460938 C 69.800781 2.460938 78.566406 -0.308594 84.714844 -5.226562 C 92.25 -3.691406 95.015625 2.460938 101.9375 2.460938 C 104.394531 2.460938 107.164062 1.84375 110.855469 0 Z M 110.855469 0 "/></g></g></g><path fill="#000000" d="M 136.433594 162 L 277.082031 162 C 279.371094 162 281.226562 163.859375 281.226562 166.148438 L 281.226562 185.492188 C 281.226562 187.78125 279.371094 189.636719 277.082031 189.636719 L 136.433594 189.636719 C 134.144531 189.636719 132.285156 187.78125 132.285156 185.492188 L 132.285156 166.148438 C 132.285156 163.859375 134.144531 162 136.433594 162 Z M 136.433594 162 " fill-opacity="1" fill-rule="nonzero"/><g fill="#ffffff" fill-opacity="1"><g transform="translate(133.854283, 181.578501)"><g><path d="M 2.976562 -2.15625 L 3.46875 -3.644531 L 8.230469 -3.644531 L 8.71875 -2.214844 C 8.914062 -1.566406 8.953125 -0.785156 8.796875 -0.253906 L 8.71875 0.0390625 L 15.085938 0.0390625 L 14.773438 -0.253906 C 14.222656 -0.785156 13.714844 -1.566406 13.5 -2.214844 L 10.382812 -11.5 C 10.167969 -12.148438 10.089844 -12.949219 10.207031 -13.5 L 10.285156 -13.910156 C 8.972656 -13.734375 5.5625 -13.402344 4.152344 -14.695312 C 3.957031 -14.539062 3.820312 -14.085938 4.035156 -13.5 C 4.210938 -13.050781 4.449219 -12.65625 4.742188 -12.34375 L 1.332031 -2.15625 C 1.117188 -1.546875 0.707031 -0.804688 0.292969 -0.3125 L 0 0.0390625 L 3.214844 0.0390625 L 3.117188 -0.175781 C 2.820312 -0.765625 2.761719 -1.546875 2.976562 -2.15625 Z M 5.878906 -10.855469 L 7.855469 -4.820312 L 3.859375 -4.820312 Z M 5.878906 -10.855469 "/></g></g></g><g fill="#ffffff" fill-opacity="1"><g transform="translate(148.937418, 181.578501)"><g><path d="M 12.34375 -0.921875 C 12.34375 -2.957031 12.34375 -4.996094 12.34375 -7.015625 C 12.949219 -7.445312 13.226562 -8.132812 13.226562 -8.855469 C 13.226562 -9.289062 13.050781 -9.816406 12.675781 -10.070312 C 12.128906 -9.308594 11.167969 -9.070312 10.265625 -9.070312 C 9.621094 -9.070312 8.972656 -9.1875 8.347656 -9.347656 L 7.660156 -8.074219 C 7.269531 -9.011719 5.542969 -9.484375 4.625 -9.484375 C 2.019531 -9.484375 0.488281 -7.542969 0.488281 -5.035156 C 0.488281 -2.332031 2.136719 -0.0195312 4.820312 0.273438 C 3.761719 0.902344 2.957031 1.742188 3.015625 2.761719 C 3.136719 4.371094 4.996094 4.742188 6.113281 4.742188 C 9.796875 4.742188 12.34375 2.9375 12.34375 -0.921875 Z M 5.09375 -4.878906 C 5.09375 -5.664062 5.230469 -7.972656 6.386719 -7.972656 C 7.5625 -7.972656 7.640625 -6.191406 7.640625 -5.367188 L 7.640625 -4.683594 C 7.640625 -3.859375 7.640625 -0.824219 6.484375 -0.824219 C 5.367188 -0.824219 5.09375 -4.152344 5.09375 -4.878906 Z M 4.113281 2.683594 C 4.113281 1.410156 6.230469 0.449219 7.640625 -0.117188 C 7.5625 2.46875 6.601562 3.722656 5.386719 3.722656 C 4.976562 3.722656 4.113281 3.546875 4.113281 2.683594 Z M 4.113281 2.683594 "/></g></g></g><g fill="#ffffff" fill-opacity="1"><g transform="translate(162.884424, 181.578501)"><g><path d="M 14.910156 -0.902344 C 14.871094 -0.882812 14.851562 -0.882812 14.8125 -0.882812 C 13.34375 -0.882812 13.539062 -3.15625 13.539062 -4.625 C 13.539062 -5.074219 13.558594 -5.976562 13.558594 -6.171875 C 13.558594 -8.347656 12.1875 -9.425781 10.1875 -9.484375 C 8.132812 -9.523438 6.878906 -8.210938 6.269531 -6.523438 L 5.464844 -9.347656 C 4.859375 -9.265625 4.152344 -9.148438 3.488281 -9.148438 C 2.605469 -9.148438 1.78125 -9.347656 1.253906 -10.070312 C 1 -9.894531 0.707031 -9.445312 0.707031 -8.855469 C 0.707031 -8.03125 1.058594 -7.40625 1.605469 -7.015625 L 1.585938 -2.585938 C 1.566406 -0.507812 2.957031 0.292969 5.035156 0.292969 C 6.328125 0.273438 7.386719 -0.175781 7.640625 -0.902344 C 7.621094 -0.882812 7.582031 -0.882812 7.5625 -0.882812 C 6.582031 -0.882812 6.347656 -1.902344 6.289062 -3.015625 C 6.210938 -4.976562 7.640625 -7.757812 8.289062 -8.011719 C 8.953125 -8.289062 8.875 -7.5625 8.875 -6.464844 C 8.875 -5.074219 8.835938 -3.742188 8.835938 -2.605469 C 8.835938 -0.507812 10.226562 0.3125 12.285156 0.292969 C 13.597656 0.292969 14.65625 -0.175781 14.910156 -0.902344 Z M 14.910156 -0.902344 "/></g></g></g><g fill="#ffffff" fill-opacity="1"><g transform="translate(178.437683, 181.578501)"><g><path d="M 11.65625 -2.976562 C 11.695312 -3.253906 11.675781 -3.371094 11.539062 -3.371094 C 11.441406 -3.371094 11.324219 -3.332031 11.167969 -3.234375 C 10.402344 -2.800781 8.992188 -2.332031 7.386719 -2.507812 C 7.699219 -1.429688 7.367188 -0.648438 6.859375 -0.628906 C 6.132812 -0.566406 5.269531 -1.683594 5.015625 -3.957031 C 5.484375 -3.898438 6.074219 -3.859375 6.71875 -3.859375 C 8.933594 -3.859375 11.695312 -4.351562 11.734375 -6.425781 C 11.777344 -8.210938 9.601562 -9.484375 6.425781 -9.484375 C 2.605469 -9.484375 0.488281 -7.679688 0.488281 -4.605469 C 0.488281 -1.507812 3.035156 0.234375 6.464844 0.273438 C 9.503906 0.292969 11.265625 -0.882812 11.65625 -2.976562 Z M 6.601562 -8.660156 C 7.582031 -8.757812 8.011719 -7.972656 7.933594 -7.113281 C 7.796875 -5.664062 6.996094 -4.859375 4.9375 -4.898438 C 4.859375 -7.054688 5.367188 -8.542969 6.601562 -8.660156 Z M 6.601562 -8.660156 "/></g></g></g><g fill="#ffffff" fill-opacity="1"><g transform="translate(190.641309, 181.578501)"><g><path d="M 11.65625 -2.976562 C 11.695312 -3.253906 11.675781 -3.371094 11.539062 -3.371094 C 11.441406 -3.371094 11.324219 -3.332031 11.167969 -3.234375 C 10.402344 -2.800781 8.992188 -2.332031 7.386719 -2.507812 C 7.699219 -1.429688 7.367188 -0.648438 6.859375 -0.628906 C 6.132812 -0.566406 5.269531 -1.683594 5.015625 -3.957031 C 5.484375 -3.898438 6.074219 -3.859375 6.71875 -3.859375 C 8.933594 -3.859375 11.695312 -4.351562 11.734375 -6.425781 C 11.777344 -8.210938 9.601562 -9.484375 6.425781 -9.484375 C 2.605469 -9.484375 0.488281 -7.679688 0.488281 -4.605469 C 0.488281 -1.507812 3.035156 0.234375 6.464844 0.273438 C 9.503906 0.292969 11.265625 -0.882812 11.65625 -2.976562 Z M 6.601562 -8.660156 C 7.582031 -8.757812 8.011719 -7.972656 7.933594 -7.113281 C 7.796875 -5.664062 6.996094 -4.859375 4.9375 -4.898438 C 4.859375 -7.054688 5.367188 -8.542969 6.601562 -8.660156 Z M 6.601562 -8.660156 "/></g></g></g><g fill="#ffffff" fill-opacity="1"><g transform="translate(202.844936, 181.578501)"><g/></g></g><g fill="#ffffff" fill-opacity="1"><g transform="translate(209.211194, 181.578501)"><g><path d="M 14.125 0 C 13.753906 -1.410156 13.910156 -4.308594 14.285156 -5.800781 C 14.34375 -6.113281 14.324219 -6.25 14.164062 -6.25 C 14.085938 -6.25 13.988281 -6.210938 13.851562 -6.152344 C 13.070312 -5.800781 12.128906 -5.542969 11.226562 -5.542969 C 10.304688 -5.542969 9.40625 -5.800781 8.738281 -6.445312 C 7.796875 -5.625 8.152344 -3.722656 9.816406 -3.3125 C 9.855469 -2.019531 9.386719 -1.019531 8.308594 -0.960938 C 7.132812 -0.882812 5.625 -2.585938 5.386719 -6.820312 C 5.210938 -10.285156 6.425781 -12.753906 7.640625 -12.871094 C 9.464844 -13.050781 8.523438 -11.5 8.777344 -10.011719 C 8.972656 -8.933594 9.953125 -8.484375 11.011719 -8.484375 C 12.167969 -8.484375 13.441406 -9.011719 13.871094 -9.855469 C 12.753906 -10.855469 13.050781 -12.382812 13.304688 -13.871094 L 12.890625 -13.636719 C 12.382812 -13.34375 11.914062 -13.246094 11.480469 -13.246094 C 10.246094 -13.246094 9.207031 -14.085938 7.582031 -14.085938 C 3.175781 -14.085938 0.546875 -11.402344 0.546875 -6.917969 C 0.566406 -2.429688 3.214844 0.253906 7.699219 0.3125 C 8.894531 0.3125 10.011719 -0.0390625 10.796875 -0.667969 C 11.757812 -0.46875 12.109375 0.3125 12.988281 0.3125 C 13.304688 0.3125 13.65625 0.234375 14.125 0 Z M 14.125 0 "/></g></g></g><g fill="#ffffff" fill-opacity="1"><g transform="translate(224.078855, 181.578501)"><g><path d="M 14.910156 -0.902344 C 14.871094 -0.882812 14.851562 -0.882812 14.8125 -0.882812 C 13.34375 -0.882812 13.539062 -3.15625 13.539062 -4.625 C 13.539062 -5.074219 13.558594 -5.976562 13.558594 -6.171875 C 13.558594 -8.347656 12.1875 -9.425781 10.1875 -9.484375 C 8.132812 -9.523438 6.898438 -8.210938 6.289062 -6.542969 L 6.289062 -14.144531 C 5.644531 -14.066406 4.761719 -13.929688 3.878906 -13.929688 C 2.839844 -13.929688 1.800781 -14.125 1.253906 -14.871094 C 1 -14.714844 0.707031 -14.265625 0.707031 -13.675781 C 0.707031 -12.832031 1.058594 -12.207031 1.605469 -11.835938 L 1.585938 -2.585938 C 1.585938 -0.507812 2.957031 0.292969 5.035156 0.292969 C 6.328125 0.273438 7.386719 -0.175781 7.640625 -0.902344 C 7.621094 -0.882812 7.582031 -0.882812 7.5625 -0.882812 C 6.582031 -0.882812 6.347656 -1.902344 6.289062 -3.015625 C 6.210938 -4.976562 7.640625 -7.757812 8.289062 -8.011719 C 8.953125 -8.289062 8.875 -7.5625 8.875 -6.464844 C 8.875 -5.074219 8.835938 -3.742188 8.835938 -2.605469 C 8.835938 -0.507812 10.226562 0.3125 12.285156 0.292969 C 13.597656 0.292969 14.65625 -0.175781 14.910156 -0.902344 Z M 14.910156 -0.902344 "/></g></g></g><g fill="#ffffff" fill-opacity="1"><g transform="translate(239.632114, 181.578501)"><g><path d="M 12.324219 -4.605469 C 12.324219 -7.933594 9.933594 -9.484375 6.425781 -9.484375 C 2.683594 -9.484375 0.507812 -7.777344 0.507812 -4.605469 C 0.507812 -1.449219 2.917969 0.273438 6.425781 0.273438 C 9.914062 0.273438 12.324219 -1.273438 12.324219 -4.605469 Z M 5.171875 -4.605469 C 5.132812 -7.230469 5.347656 -8.660156 6.386719 -8.660156 C 7.40625 -8.679688 7.640625 -7.386719 7.679688 -4.625 C 7.699219 -1.863281 7.484375 -0.566406 6.464844 -0.566406 C 5.425781 -0.546875 5.191406 -1.980469 5.171875 -4.605469 Z M 5.171875 -4.605469 "/></g></g></g><g fill="#ffffff" fill-opacity="1"><g transform="translate(252.462573, 181.578501)"><g><path d="M 11.128906 -2.585938 C 11.128906 -5.605469 5.503906 -5.957031 5.542969 -7.699219 C 5.542969 -8.171875 5.9375 -8.40625 6.699219 -8.367188 C 7.5625 -8.308594 8.71875 -7.679688 9.289062 -6.839844 C 9.445312 -6.621094 9.523438 -6.523438 9.601562 -6.523438 C 9.660156 -6.523438 9.71875 -6.640625 9.835938 -6.898438 C 10.1875 -7.699219 10.914062 -8.328125 10.914062 -9.011719 C 10.914062 -9.582031 10.480469 -10.011719 10.03125 -10.265625 C 9.640625 -9.40625 8.933594 -9.128906 8.054688 -9.128906 C 6.839844 -9.128906 5.644531 -9.523438 4.429688 -9.523438 C 2.644531 -9.523438 0.726562 -8.796875 0.726562 -6.660156 C 0.726562 -3.253906 5.957031 -3.3125 5.957031 -1.429688 C 5.957031 -0.921875 5.503906 -0.746094 5.074219 -0.746094 C 3.566406 -0.746094 1.882812 -2.273438 1.136719 -3.507812 C 0.804688 -3.195312 0.488281 -2.839844 0.488281 -2.351562 C 0.488281 -0.136719 4.507812 0.273438 6.015625 0.273438 C 7.933594 0.273438 11.128906 0.0585938 11.128906 -2.585938 Z M 11.128906 -2.585938 "/></g></g></g><g fill="#ffffff" fill-opacity="1"><g transform="translate(264.098134, 181.578501)"><g><path d="M 14.910156 -0.902344 C 14.871094 -0.882812 14.851562 -0.882812 14.8125 -0.882812 C 13.34375 -0.882812 13.539062 -3.15625 13.539062 -4.625 C 13.539062 -5.074219 13.558594 -5.976562 13.558594 -6.171875 C 13.558594 -8.347656 12.1875 -9.425781 10.1875 -9.484375 C 8.132812 -9.523438 6.898438 -8.210938 6.289062 -6.542969 L 6.289062 -14.144531 C 5.644531 -14.066406 4.761719 -13.929688 3.878906 -13.929688 C 2.839844 -13.929688 1.800781 -14.125 1.253906 -14.871094 C 1 -14.714844 0.707031 -14.265625 0.707031 -13.675781 C 0.707031 -12.832031 1.058594 -12.207031 1.605469 -11.835938 L 1.585938 -2.585938 C 1.585938 -0.507812 2.957031 0.292969 5.035156 0.292969 C 6.328125 0.273438 7.386719 -0.175781 7.640625 -0.902344 C 7.621094 -0.882812 7.582031 -0.882812 7.5625 -0.882812 C 6.582031 -0.882812 6.347656 -1.902344 6.289062 -3.015625 C 6.210938 -4.976562 7.640625 -7.757812 8.289062 -8.011719 C 8.953125 -8.289062 8.875 -7.5625 8.875 -6.464844 C 8.875 -5.074219 8.835938 -3.742188 8.835938 -2.605469 C 8.835938 -0.507812 10.226562 0.3125 12.285156 0.292969 C 13.597656 0.292969 14.65625 -0.175781 14.910156 -0.902344 Z M 14.910156 -0.902344 "/></g></g></g></svg>